<svg width="870" height="344" viewBox="0 0 870 344" fill="none" xmlns="http://www.w3.org/2000/svg">
<g clip-path="url(#clip0_397_345)">
<path d="M237.039 311.118C222.594 298.549 212.416 282.101 202.567 265.808C192.553 249.36 182.376 232.757 172.362 216.308C167.93 209.015 156.439 212.74 148.56 216.619C136.248 222.515 122.295 226.86 108.835 224.067C95.3738 221.429 83.2264 209.946 84.0472 197.067C84.8679 184.343 98.0003 174.567 111.297 173.326C124.758 172.085 137.89 177.516 148.888 184.809C155.454 188.998 163.006 181.24 166.617 174.723C171.87 164.636 177.287 154.395 178.764 143.223C180.242 132.051 176.959 119.637 167.602 112.654C158.245 105.671 142.486 106.602 136.248 116.223C133.129 121.189 132.801 127.706 128.861 132.206C122.624 139.188 109.491 137.637 103.746 130.344C98.0003 123.051 98.9852 112.344 104.402 104.74C109.655 97.137 118.52 92.3267 127.548 89.2233C152.336 80.8441 184.346 86.4302 197.971 107.844C206.835 121.654 206.507 139.344 201.089 154.706C195.672 170.067 185.823 183.567 175.974 196.912C173.019 200.947 176.138 206.222 179.093 210.102C190.748 225.308 202.895 240.205 215.535 254.636C226.698 267.36 238.353 279.929 252.306 290.015C290.882 317.946 346.038 323.377 390.032 303.825C411.043 294.36 430.25 278.377 435.995 256.963C441.576 235.705 429.265 209.636 406.611 204.826C420.072 199.86 436.159 208.24 442.561 220.653C448.963 232.912 447.486 247.653 443.054 260.687C428.28 303.515 382.316 332.532 335.04 337.807C300.239 341.687 262.812 333.773 237.039 311.118ZM119.833 211.033C126.727 210.567 133.458 208.55 139.367 205.136C143.635 202.809 147.411 196.602 143.143 194.119C137.562 190.86 131.652 187.912 125.25 186.981C118.684 186.05 111.625 187.757 107.357 192.412C103.253 197.222 103.417 205.291 108.67 209.015C111.789 211.033 115.893 211.343 119.833 211.033Z" fill="url(#paint0_linear_397_345)"/>
<path d="M386.585 91.2406C388.883 90.7751 391.838 90.4648 393.151 92.482C394.3 94.0337 393.479 96.2061 392.494 97.913C379.034 124.447 371.154 156.161 363.275 184.712C357.201 207.212 338.487 223.446 317.64 235.705C315.342 234.153 315.834 230.74 316.819 228.257C330.444 187.602 344.233 146.947 358.022 106.292C359.171 103.034 360.32 99.4647 363.275 97.2923C365.409 95.5854 368.364 94.9647 371.154 94.4992C376.243 93.413 381.332 92.3268 386.585 91.2406Z" fill="url(#paint1_linear_397_345)"/>
<path d="M666.961 164.171C665.155 166.033 664.006 168.516 662.857 170.999C655.141 187.912 647.426 204.981 639.711 221.895C638.069 225.619 636.592 230.429 639.711 233.222C641.681 234.929 644.636 234.929 647.262 234.774C667.453 234.153 687.48 233.378 707.507 232.757C709.477 234.153 708.984 237.257 707.179 238.653C705.209 240.05 702.746 240.36 700.284 240.515C675.004 242.688 649.56 244.86 624.28 246.878C621.654 241.757 623.952 235.705 626.25 230.429C636.756 206.378 647.426 182.326 658.096 158.275C660.887 151.758 669.915 150.206 677.302 149.74C691.584 148.654 705.701 147.723 719.983 146.637C723.102 146.482 729.838 145.636 732.842 146.168C732.842 150.173 732.842 153.676 732.842 157.18C724.833 157.681 732.842 157.18 724.743 157.654C711.775 157.964 698.807 158.43 685.838 158.74C679.108 158.895 671.393 159.361 666.961 164.171Z" fill="url(#paint2_linear_397_345)"/>
<path d="M246.396 104.275C254.604 103.809 262.812 103.499 271.019 103.034C263.14 122.43 257.066 142.447 252.962 162.93C251.649 169.292 251.157 177.05 256.738 180.619C260.514 182.947 265.274 182.481 269.706 181.86C275.944 180.929 283.003 179.688 286.778 174.878C288.748 172.395 289.569 169.447 290.39 166.654C295.971 146.481 301.716 126.464 307.298 106.292C308.447 102.413 313.371 101.016 317.639 100.396C325.519 99.3094 333.398 98.6887 341.278 98.8439C332.085 127.395 322.728 156.102 313.371 184.809C311.073 192.257 308.118 200.481 301.06 204.671C296.135 207.929 289.733 208.395 283.659 208.86C275.123 209.481 266.587 210.102 257.887 210.877C247.709 211.653 236.383 212.119 228.175 206.222C217.013 198.309 216.684 182.947 218.326 169.912C220.624 151.137 224.728 132.516 230.637 114.361C231.294 112.033 232.115 109.706 233.92 107.844C237.039 104.896 241.964 104.43 246.396 104.275Z" fill="url(#paint3_linear_397_345)"/>
<path d="M325.355 295.756C305.492 294.36 284.973 285.67 275.945 268.912C269.214 256.188 270.363 240.05 278.899 228.257C280.705 225.774 283.331 223.291 286.45 223.912C287.271 228.257 284.809 232.602 283.496 236.791C280.377 246.722 283.824 257.894 291.211 265.653C298.434 273.567 308.94 278.222 319.774 279.929C348.665 284.894 380.183 268.601 391.509 242.843C392.659 240.205 393.479 237.101 392.002 234.619C390.525 232.291 385.6 232.136 385.272 234.929C383.63 245.17 374.602 255.412 363.767 253.705C354.411 252.308 348.665 241.912 350.635 233.067C352.441 224.222 360.156 217.395 368.692 213.36C378.213 208.86 391.181 207.929 398.076 215.688C400.374 218.326 401.687 221.584 402.508 224.998C407.432 244.084 399.061 265.187 383.466 278.532C368.035 291.722 346.203 297.308 325.355 295.756Z" fill="url(#paint4_linear_397_345)"/>
<path d="M566.169 206.534C564.035 206.689 566.169 206.534 558.642 207.238C554.243 215.243 558.642 207.238 553.858 215.533C548.489 224.842 545.89 233.849 541.622 243.78C558.642 242.279 575.161 240.56 593.091 239.43C595.553 239.275 593.091 239.43 602.192 238.775C603.597 245.792 602.192 238.775 603.597 245.792C523.817 253.861 603.597 245.792 523.817 253.861C539.74 223.137 554.022 191.792 566.826 159.672C568.796 154.706 575.526 153.775 581.107 153.62C597.03 153.155 613.118 152.534 629.205 152.068C632.652 151.913 642.238 152.069 645.742 152.068C644.143 160.913 644.741 157.681 644.143 160.913C624.718 163.396 600.815 161.978 581.668 163.188C579.599 163.065 581.828 163.178 576.662 163.688C569.617 177.827 576.662 163.688 569.617 177.827C566.99 184.654 564.199 191.327 561.409 197.999C576.839 197.378 592.106 196.758 607.536 195.982C610.655 195.982 614.267 195.827 616.565 197.999C619.027 200.016 618.206 204.827 615.087 204.982C598.672 205.447 582.421 206.068 566.169 206.534Z" fill="url(#paint5_linear_397_345)"/>
<path d="M73.2126 76.9648C68.7804 87.5164 58.4387 95.8957 46.6195 98.2233C34.8004 100.551 21.9963 96.8267 13.4603 88.7578C3.11852 78.982 -0.000414848 63.7753 3.61099 50.4305C7.05824 37.241 16.7434 25.7583 28.3984 17.6894C47.2761 4.81022 71.571 -9.07183e-05 94.5527 2.32748C117.699 4.65504 139.695 13.8101 158.737 26.379C181.719 41.741 201.582 63.9304 204.536 90.3095C198.791 91.0854 194.851 85.3441 191.896 80.6889C170.064 45.7754 124.101 26.0687 81.9128 33.5169C76.3315 34.4479 70.422 36.1548 66.8106 40.1892C63.1992 44.3789 63.035 51.6719 67.9596 54.3098C75.5108 58.6546 76.3315 69.2062 73.2126 76.9648Z" fill="url(#paint6_linear_397_345)"/>
<path d="M761.375 145.24C757.371 160.685 753.867 172.699 748.382 189.775C764.469 189.93 780.556 190.085 796.643 190.085C804.195 190.24 810.128 189.693 811.933 182.71C825.449 148.17 826.45 145.24 855.739 69.5169C857.052 66.4135 857.986 65.0749 859.488 61.0703C862.992 61.5709 865.495 64.5743 868.707 66.4135C840.801 134.999 814.252 218.171 792.911 288.929C785.903 288.929 792.911 288.929 780.228 288.929C788.764 261.619 797.3 234.309 805.672 206.999C806.329 204.981 806.985 202.654 805.508 200.947C804.195 199.24 801.732 199.24 799.598 199.24C786.63 199.24 773.662 199.24 760.694 199.24C756.426 199.24 749.969 198.93 746.358 200.947C743.354 209.241 735.485 230.515 733.844 238.274C722.117 236.171 733.844 238.274 722.117 236.171C731.31 208.705 739.832 181.142 748.861 153.677C751.364 145.24 748.861 153.677 751.364 145.24C754.367 145.24 758.881 145.24 761.375 145.24Z" fill="url(#paint7_linear_397_345)"/>
<path d="M460.29 123.361C445.516 123.826 430.742 124.447 415.804 125.068C413.834 125.068 419.482 124.915 394.954 125.068C399.459 111.128 405.967 100.615 410.387 89.6028C420.984 89.6028 448.307 87.8757 460.29 87.0999C491.565 85.075 520.699 83.9211 552.381 81.5936C577.825 79.8867 602.778 78.7953 628.222 77.0884C629.205 92.6062 629.205 101.617 629.205 112.629C599.689 115.633 618.211 114.131 565.513 118.24C550.904 118.395 539.62 119.688 523.602 121.139C516.594 121.774 522.012 121.139 499.074 123.361C493.567 136.657 492.566 144.666 489.346 155.481C508.88 155.016 528.579 154.395 548.277 153.774C549.755 153.774 548.277 153.774 555.138 153.676C552.053 160.038 555.138 153.676 552.053 160.137C529.789 206.749 504.776 251.843 481.138 297.773C471.781 315.928 460.783 335.635 441.084 343.394C462.26 290.17 483.272 236.946 504.448 183.723C483.6 185.429 462.588 186.981 441.741 188.533C447.814 166.809 454.052 145.085 460.29 123.361Z" fill="url(#paint8_linear_397_345)"/>
</g>
<defs>
<linearGradient id="paint0_linear_397_345" x1="265.443" y1="85.5015" x2="265.443" y2="338.752" gradientUnits="userSpaceOnUse">
<stop stop-color="#F04FFF"/>
<stop offset="1" stop-color="#F79DFF" stop-opacity="0"/>
</linearGradient>
<linearGradient id="paint1_linear_397_345" x1="354.853" y1="90.8955" x2="354.853" y2="235.705" gradientUnits="userSpaceOnUse">
<stop stop-color="#F04FFF"/>
<stop offset="1" stop-color="#F79DFF" stop-opacity="0"/>
</linearGradient>
<linearGradient id="paint2_linear_397_345" x1="677.968" y1="146.538" x2="677.968" y2="246.877" gradientUnits="userSpaceOnUse">
<stop stop-color="#F04FFF"/>
<stop offset="1" stop-color="#F79DFF" stop-opacity="0"/>
</linearGradient>
<linearGradient id="paint3_linear_397_345" x1="279.439" y1="98.8203" x2="279.439" y2="211.329" gradientUnits="userSpaceOnUse">
<stop stop-color="#F04FFF"/>
<stop offset="1" stop-color="#F79DFF" stop-opacity="0"/>
</linearGradient>
<linearGradient id="paint4_linear_397_345" x1="337.755" y1="209.912" x2="337.755" y2="296.009" gradientUnits="userSpaceOnUse">
<stop stop-color="#F04FFF"/>
<stop offset="1" stop-color="#F79DFF" stop-opacity="0"/>
</linearGradient>
<linearGradient id="paint5_linear_397_345" x1="584.06" y1="151.97" x2="584.06" y2="253.86" gradientUnits="userSpaceOnUse">
<stop stop-color="#F04FFF"/>
<stop offset="1" stop-color="#F79DFF" stop-opacity="0"/>
</linearGradient>
<linearGradient id="paint6_linear_397_345" x1="103.352" y1="1.76221" x2="103.352" y2="98.9073" gradientUnits="userSpaceOnUse">
<stop stop-color="#F04FFF"/>
<stop offset="1" stop-color="#F79DFF" stop-opacity="0"/>
</linearGradient>
<linearGradient id="paint7_linear_397_345" x1="795.524" y1="61.4565" x2="795.524" y2="289.314" gradientUnits="userSpaceOnUse">
<stop stop-color="#F04FFF"/>
<stop offset="1" stop-color="#F79DFF" stop-opacity="0"/>
</linearGradient>
<linearGradient id="paint8_linear_397_345" x1="519.922" y1="74.1717" x2="519.922" y2="343.394" gradientUnits="userSpaceOnUse">
<stop stop-color="#F04FFF"/>
<stop offset="1" stop-color="#F79DFF" stop-opacity="0"/>
</linearGradient>
<clipPath id="clip0_397_345">
<rect width="870" height="343.395" fill="white"/>
</clipPath>
</defs>
</svg>
